# xmcd CD database file
#
# Track frame offsets:
#	225
#	12688
#	27392
#	37103
#	51208
#	63332
#	78059
#	99165
#	115715
#	133575
#	148046
#	159843
#	173091
#	190877
#	201500
#	218380
#	235420
#	249695
#	264506
#	282925
#
# Disc length: 3923 seconds
#
# Revision: 0
# Processed by: cddbd v1.4PL0 Copyright (c) Steve Scherf et al.
# Submitted via: CDex 1.50
#
DISCID=1a0f5014
DTITLE=Bobek Pavel - P.B. v Lucerne
DYEAR=1998
DGENRE=Country
TTITLE0=Ma divka "N"
TTITLE1=Oh, Ruby, nechtej mi lasku brat
TTITLE2=Oh Boy
TTITLE3=Zmiram laskou
TTITLE4=Country Boy
TTITLE5=A Foggy Day
TTITLE6=Bowery street
TTITLE7=Hejno padlych andelu
TTITLE8=Lasko, mne ubyva sil
TTITLE9=Cestou dlouhou
TTITLE10=Memphis, Tennessee
TTITLE11=Vis, kdo ti smi z tvych vlasku copy splest
TTITLE12=I´ve Got You Under My Skin
TTITLE13=Kobylka
TTITLE14=Musim se sam sobe smat
TTITLE15=S tim blaznem si nic nezacinej
TTITLE16=Sweet Little Sixteen
TTITLE17=Ved me dal, cesto ma
TTITLE18=Pojd dal a zpivej
TTITLE19=Tam, kde lezi Phoenix
EXTD=YEAR: 1998
EXTT0=
EXTT1=
EXTT2=
EXTT3=
EXTT4=
EXTT5=
EXTT6=
EXTT7=
EXTT8=
EXTT9=
EXTT10=
EXTT11=
EXTT12=
EXTT13=
EXTT14=
EXTT15=
EXTT16=
EXTT17=
EXTT18=
EXTT19=
PLAYORDER=
